<svg width="20" height="20" viewBox="0 0 20 20" fill="none" xmlns="http://www.w3.org/2000/svg">
    <path d="M15.43 12.464h1.028c.851 0 1.542-.69 1.542-1.542V3.724c0-.852-.69-1.543-1.542-1.543h-1.029c-.851 0-1.542.69-1.542 1.543v7.198c0 .851.69 1.542 1.542 1.542" stroke="#1A1A1A" stroke-width="1.2" stroke-linecap="round" stroke-linejoin="round"/>
    <path d="m2.043 10.007 1.233-6.17A2.06 2.06 0 0 1 5.333 2.18h6.5a2.057 2.057 0 0 1 2.056 2.056v6.17a2.808 2.808 0 0 1-1.03 2.057l-.852 5.142a.77.77 0 0 1-1.11.565l-.956-.473a3.084 3.084 0 0 1-1.625-3.516l.43-1.708H4.059a2.056 2.056 0 0 1-2.015-2.467z" stroke="#1A1A1A" stroke-width="1.2" stroke-linecap="round" stroke-linejoin="round"/>
</svg>
