<svg width="28" height="28" viewBox="0 0 28 28" fill="none" xmlns="http://www.w3.org/2000/svg">
    <rect width="28" height="28" rx="14" fill="#22449C"/>
    <path d="M16.202 20.26c-.297.07-.604.125-.906.102-.663-.053-.426-.656-.326-1.213l.49-2.73c.164-.914.42-1.864.476-2.796.15-2.455-4.04-.71-4.816-.351.583-.096 1.205-.169 1.778.033.417.146.196.795.131 1.127-.291 1.498-.527 3.029-.882 4.51-.119.494-.301 1.046-.213 1.566.094.556.598.75 1.031.772 1.198.065 2.44-.579 3.525-1.09l-.171.044-.116.028v-.001z" fill="#fff"/>
    <circle cx="14.699" cy="9.075" r="1.79" fill="#fff"/>
</svg>
