<svg width="22" height="20" viewBox="0 0 22 20" fill="none" xmlns="http://www.w3.org/2000/svg">
    <path d="M11.003 14.401a.6.6 0 0 1 .597.603l-.005 1.137a.6.6 0 0 1-1.2-.005l.005-1.138a.6.6 0 0 1 .603-.597zm-3.93-1.323a.6.6 0 1 1 .852.846l-.838.841a.6.6 0 0 1-.85-.844l.836-.843zm7.002-.001a.6.6 0 0 1 .848-.003l.843.839a.6.6 0 0 1-.846.85l-.843-.838a.6.6 0 0 1-.002-.848zM6.001 9.4a.6.6 0 0 1-.004 1.2l-1.139-.005a.6.6 0 0 1 .004-1.199l1.139.004zm11.135-.004a.6.6 0 0 1 .004 1.2l-1.138.004a.6.6 0 0 1-.004-1.2l1.138-.004zM6.238 5.23a.6.6 0 0 1 .849.004l.838.843a.6.6 0 0 1-.852.847l-.837-.845a.6.6 0 0 1 .002-.849zm8.682.006a.6.6 0 0 1 .846.852l-.843.838a.6.6 0 0 1-.846-.852l.843-.838zm-3.928-1.975a.6.6 0 0 1 .603.597l.005 1.14a.6.6 0 1 1-1.2.005l-.005-1.139a.6.6 0 0 1 .597-.603z" fill="#7F8394"/>
    <circle cx="10.996" cy="10" r="3.5" fill="#7F8394"/>
</svg>
