<svg width="100" height="148" viewBox="0 0 100 148" fill="none" xmlns="http://www.w3.org/2000/svg">
    <g opacity=".4">
        <path d="M44.663 147.619h10.674c20.509 0 33.353-17.121 33.353-35.714 0-18.594-12.844-35.714-33.353-35.714H44.663c-20.508 0-33.353 17.12-33.353 35.714 0 18.593 12.844 35.714 33.353 35.714z" fill="url(#3zh8ejh7na)"/>
        <foreignObject x="11.333" y="73.238" width="77.333" height="77.333">
            <div xmlns="http://www.w3.org/1999/xhtml" style="backdrop-filter:blur(2.67px);clip-path:url(#63885ndbvb);height:100%;width:100%"/>
        </foreignObject>
        <rect data-figma-bg-blur-radius="5.333" width="66.667" height="66.667" rx="26.191" transform="matrix(1 0 0 -1 16.667 145.238)" fill="url(#ojxfl0c20c)" fill-opacity=".5"/>
    </g>
    <path d="M16.667 17.857c-5.08 6.802-6.993 14.474-6.993 22.62 0 8.145 1.913 15.816 6.993 22.618-6.492-5.577-9.524-13.995-9.524-22.618 0-8.624 3.032-17.043 9.524-22.62z" fill="url(#t0efw1ad7d)"/>
    <path d="M7.143 27.38C5.238 31.32 4.52 35.76 4.52 40.477c0 4.716.718 9.157 2.623 13.095C4.709 50.342 3.57 45.47 3.57 40.476c0-4.992 1.137-9.866 3.572-13.095z" fill="url(#dc5lazhkae)"/>
    <path d="M92.857 27.38c1.905 3.939 2.623 8.38 2.623 13.096 0 4.716-.718 9.157-2.623 13.095 2.434-3.229 3.572-8.102 3.572-13.095 0-4.992-1.137-9.866-3.572-13.095z" fill="url(#ujftjf5o0f)"/>
    <path d="M83.333 17.857c5.08 6.802 6.993 14.474 6.993 22.62 0 8.145-1.913 15.816-6.993 22.618 6.492-5.577 9.524-13.995 9.524-22.618 0-8.624-3.032-17.043-9.524-22.62z" fill="url(#6p0jmou3rg)"/>
    <path d="M44.663 4.762h10.674c20.508 0 33.353 17.12 33.353 35.714 0 18.594-12.844 35.714-33.353 35.714H44.663c-20.509 0-33.354-17.12-33.354-35.714 0-18.594 12.845-35.714 33.354-35.714z" fill="url(#xtiagyz73h)"/>
    <foreignObject x="11.333" y="1.809" width="77.333" height="77.333">
        <div xmlns="http://www.w3.org/1999/xhtml" style="backdrop-filter:blur(2.67px);clip-path:url(#uwio042wwi);height:100%;width:100%"/>
    </foreignObject>
    <rect data-figma-bg-blur-radius="5.333" x="16.667" y="7.143" width="66.667" height="66.667" rx="26.191" fill="url(#xe7e941shj)" fill-opacity=".5"/>
    <g filter="url(#hbp5je5z0k)">
        <rect x="35.409" y="25.884" width="7.959" height="13.265" rx="3.98" fill="#fff"/>
    </g>
    <g filter="url(#1b2pj9zcml)">
        <rect x="56.632" y="25.884" width="7.959" height="13.265" rx="3.98" fill="#fff"/>
    </g>
    <defs>
        <linearGradient id="3zh8ejh7na" x1="50" y1="147.619" x2="50" y2="76.191" gradientUnits="userSpaceOnUse">
            <stop stop-color="#E8F4FF" stop-opacity="0"/>
            <stop offset=".183" stop-color="#A0DCFF" stop-opacity="0"/>
            <stop offset=".8" stop-color="#A0D4FF" stop-opacity="0"/>
            <stop offset="1" stop-color="#C3F2FF"/>
        </linearGradient>
        <linearGradient id="ojxfl0c20c" x1="33.333" y1="0" x2="33.333" y2="66.667" gradientUnits="userSpaceOnUse">
            <stop offset=".8" stop-color="#4C85EF" stop-opacity="0"/>
            <stop offset="1" stop-color="#92C1FF"/>
        </linearGradient>
        <linearGradient id="t0efw1ad7d" x1="11.905" y1="17.857" x2="11.905" y2="63.095" gradientUnits="userSpaceOnUse">
            <stop stop-color="#E8F4FF"/>
            <stop offset=".3" stop-color="#B7E5FF"/>
            <stop offset=".702" stop-color="#B7E5FF"/>
            <stop offset="1" stop-color="#E8F4FF"/>
        </linearGradient>
        <linearGradient id="dc5lazhkae" x1="5.357" y1="27.381" x2="5.357" y2="53.571" gradientUnits="userSpaceOnUse">
            <stop stop-color="#E8F4FF"/>
            <stop offset=".3" stop-color="#D3EFFF"/>
            <stop offset=".702" stop-color="#D3EFFF"/>
            <stop offset="1" stop-color="#E8F4FF"/>
        </linearGradient>
        <linearGradient id="ujftjf5o0f" x1="94.643" y1="27.381" x2="94.643" y2="53.571" gradientUnits="userSpaceOnUse">
            <stop stop-color="#E8F4FF"/>
            <stop offset=".3" stop-color="#D3EFFF"/>
            <stop offset=".702" stop-color="#D3EFFF"/>
            <stop offset="1" stop-color="#E8F4FF"/>
        </linearGradient>
        <linearGradient id="6p0jmou3rg" x1="88.095" y1="17.857" x2="88.095" y2="63.095" gradientUnits="userSpaceOnUse">
            <stop stop-color="#E8F4FF"/>
            <stop offset=".3" stop-color="#B7E5FF"/>
            <stop offset=".702" stop-color="#B7E5FF"/>
            <stop offset="1" stop-color="#E8F4FF"/>
        </linearGradient>
        <linearGradient id="xtiagyz73h" x1="50" y1="4.762" x2="50" y2="76.19" gradientUnits="userSpaceOnUse">
            <stop stop-color="#E8F4FF"/>
            <stop offset=".183" stop-color="#A0DCFF"/>
            <stop offset=".702" stop-color="#A0D4FF"/>
            <stop offset="1" stop-color="#C3F2FF"/>
        </linearGradient>
        <linearGradient id="xe7e941shj" x1="50" y1="7.143" x2="50" y2="73.809" gradientUnits="userSpaceOnUse">
            <stop offset=".654" stop-color="#4C85EF"/>
            <stop offset="1" stop-color="#92C1FF"/>
        </linearGradient>
        <clipPath id="63885ndbvb" transform="translate(-11.333 -73.238)">
            <rect width="66.667" height="66.667" rx="26.191" transform="matrix(1 0 0 -1 16.667 145.238)"/>
        </clipPath>
        <clipPath id="uwio042wwi" transform="translate(-11.333 -1.81)">
            <rect x="16.667" y="7.143" width="66.667" height="66.667" rx="26.191"/>
        </clipPath>
        <filter id="hbp5je5z0k" x="30.102" y="20.578" width="18.572" height="23.877" filterUnits="userSpaceOnUse" color-interpolation-filters="sRGB">
            <feFlood flood-opacity="0" result="BackgroundImageFix"/>
            <feColorMatrix in="SourceAlpha" values="0 0 0 0 0 0 0 0 0 0 0 0 0 0 0 0 0 0 127 0" result="hardAlpha"/>
            <feOffset/>
            <feGaussianBlur stdDeviation="2.653"/>
            <feComposite in2="hardAlpha" operator="out"/>
            <feColorMatrix values="0 0 0 0 1 0 0 0 0 1 0 0 0 0 1 0 0 0 0.25 0"/>
            <feBlend in2="BackgroundImageFix" result="effect1_dropShadow_1202_12361"/>
            <feBlend in="SourceGraphic" in2="effect1_dropShadow_1202_12361" result="shape"/>
        </filter>
        <filter id="1b2pj9zcml" x="51.326" y="20.578" width="18.572" height="23.877" filterUnits="userSpaceOnUse" color-interpolation-filters="sRGB">
            <feFlood flood-opacity="0" result="BackgroundImageFix"/>
            <feColorMatrix in="SourceAlpha" values="0 0 0 0 0 0 0 0 0 0 0 0 0 0 0 0 0 0 127 0" result="hardAlpha"/>
            <feOffset/>
            <feGaussianBlur stdDeviation="2.653"/>
            <feComposite in2="hardAlpha" operator="out"/>
            <feColorMatrix values="0 0 0 0 1 0 0 0 0 1 0 0 0 0 1 0 0 0 0.25 0"/>
            <feBlend in2="BackgroundImageFix" result="effect1_dropShadow_1202_12361"/>
            <feBlend in="SourceGraphic" in2="effect1_dropShadow_1202_12361" result="shape"/>
        </filter>
    </defs>
</svg>
