<svg width="100" height="122" viewBox="0 0 100 122" fill="none" xmlns="http://www.w3.org/2000/svg">
    <path d="M85.714 95.292c0 13.807-16.626 26.137-35.714 26.137-19.088 0-35.714-12.33-35.714-26.137C17.742 86.202 23.502 71.43 50 71.43c27.65 0 32.258 14.772 35.714 23.863z" fill="url(#y3q34uw1na)"/>
    <path d="M83.334 48.81c5.26 0 9.524-5.863 9.524-13.096 0-7.232-4.264-13.095-9.524-13.095-5.26 0-9.523 5.863-9.523 13.095 0 7.233 4.263 13.096 9.523 13.096z" fill="url(#7jt0oevhrb)"/>
    <mask id="xes9s1apdc" style="mask-type:luminance" maskUnits="userSpaceOnUse" x="12" y="0" width="76" height="75">
        <path d="M44.729 0h10.543c18.063 0 32.693 14.63 32.693 32.692v8.827c0 18.063-14.63 32.693-32.693 32.693H44.73c-18.063 0-32.693-14.63-32.693-32.693v-8.827C12.036 14.63 26.666 0 44.73 0z" fill="#fff"/>
    </mask>
    <g mask="url(#xes9s1apdc)">
        <path d="M45.04 2.38h9.92c16.991 0 30.754 13.613 30.754 30.418v8.213c0 16.806-13.763 30.417-30.755 30.417h-9.918c-16.993 0-30.755-13.611-30.755-30.417v-8.213c0-16.805 13.762-30.417 30.755-30.417z" fill="url(#cl26cooyod)"/>
        <path d="M45.04 2.38h9.92c16.991 0 30.754 13.613 30.754 30.418v8.213c0 16.806-13.763 30.417-30.755 30.417h-9.918c-16.993 0-30.755-13.611-30.755-30.417v-8.213c0-16.805 13.762-30.417 30.755-30.417z" fill="url(#hiwvdor4we)" fill-opacity=".2"/>
    </g>
    <g filter="url(#mj6cmgwwyf)">
        <path d="M77.382 36.905c0 9.838-7.998 17.857-17.792 17.857H40.412c-9.794 0-17.792-8.019-17.792-17.857s7.998-17.857 17.792-17.857H59.59c9.794 0 17.792 8.019 17.792 17.857z" fill="url(#ozpu87tceg)"/>
    </g>
    <path d="M41.216 39.967a3.017 3.017 0 0 1-3.025 3.024 3.017 3.017 0 0 1-3.024-3.024v-5.803a3.017 3.017 0 0 1 3.024-3.024 3.017 3.017 0 0 1 3.025 3.024v5.803zM65.163 39.967a3.017 3.017 0 0 1-3.024 3.024 3.017 3.017 0 0 1-3.025-3.024v-5.803a3.017 3.017 0 0 1 3.025-3.024 3.017 3.017 0 0 1 3.024 3.024v5.803z" fill="#26BAFF"/>
    <g filter="url(#rf07aryz8h)" style="mix-blend-mode:screen">
        <path d="M22.62 19.367c4.495-4.086 9.89-7.11 16.755-8.99l-.98-2.043C26.215 11.276 22.62 19.367 22.62 19.367z" fill="url(#w0q9392eqi)" style="mix-blend-mode:screen"/>
    </g>
    <g filter="url(#pmgzbkiyxj)" style="mix-blend-mode:screen">
        <path d="M77.382 18.452s-5.952-7.325-13.095-7.749c0 0 .595-1.18 1.47-2.288 5.077 1.704 9.244 5.275 11.625 10.037z" fill="url(#46hx1k0unk)" style="mix-blend-mode:screen"/>
    </g>
    <path d="M88.095 39.286c0 18.824-15.097 27.38-28.517 27.38h-8.387" stroke="url(#qde9coefhl)" stroke-width="1.786"/>
    <rect x="41.072" y="63.094" width="17.857" height="7.143" rx="3.571" fill="url(#iw8u5akyfm)"/>
    <defs>
        <linearGradient id="y3q34uw1na" x1="50" y1="71.429" x2="50" y2="91.883" gradientUnits="userSpaceOnUse">
            <stop stop-color="#DEE1ED" stop-opacity=".3"/>
            <stop offset=".529" stop-color="#DEE1ED" stop-opacity="0"/>
            <stop offset="1" stop-color="#EEEEF3" stop-opacity="0"/>
        </linearGradient>
        <linearGradient id="7jt0oevhrb" x1="83.334" y1="23.158" x2="83.334" y2="47.808" gradientUnits="userSpaceOnUse">
            <stop stop-color="#71747F"/>
            <stop offset=".5" stop-color="#5F616A"/>
            <stop offset="1" stop-color="#3D4049"/>
        </linearGradient>
        <linearGradient id="hiwvdor4we" x1="50" y1="58.064" x2="50" y2="71.428" gradientUnits="userSpaceOnUse">
            <stop stop-color="#B1B5C7" stop-opacity="0"/>
            <stop offset="1" stop-color="#6C728D"/>
        </linearGradient>
        <linearGradient id="ozpu87tceg" x1="22.62" y1="36.905" x2="77.382" y2="36.905" gradientUnits="userSpaceOnUse">
            <stop stop-color="#0E0F1E"/>
            <stop offset="1" stop-color="#0C0E19"/>
        </linearGradient>
        <linearGradient id="w0q9392eqi" x1="20.577" y1="17.978" x2="44.197" y2="7.516" gradientUnits="userSpaceOnUse">
            <stop stop-color="#fff"/>
            <stop offset="1"/>
        </linearGradient>
        <linearGradient id="46hx1k0unk" x1="64.447" y1="10.883" x2="77.728" y2="11.928" gradientUnits="userSpaceOnUse">
            <stop stop-color="#fff"/>
            <stop offset="1"/>
        </linearGradient>
        <linearGradient id="qde9coefhl" x1="69.643" y1="39.286" x2="69.643" y2="66.667" gradientUnits="userSpaceOnUse">
            <stop stop-color="#51535D"/>
            <stop offset="1" stop-color="#54565F"/>
        </linearGradient>
        <linearGradient id="iw8u5akyfm" x1="50" y1="63.241" x2="50" y2="69.964" gradientUnits="userSpaceOnUse">
            <stop stop-color="#5F616A"/>
            <stop offset=".5" stop-color="#4B4D55"/>
            <stop offset="1" stop-color="#2C2D32"/>
        </linearGradient>
        <filter id="mj6cmgwwyf" x="21.43" y="19.048" width="57.143" height="39.286" filterUnits="userSpaceOnUse" color-interpolation-filters="sRGB">
            <feFlood flood-opacity="0" result="BackgroundImageFix"/>
            <feColorMatrix in="SourceAlpha" values="0 0 0 0 0 0 0 0 0 0 0 0 0 0 0 0 0 0 127 0" result="hardAlpha"/>
            <feOffset dy="2.381"/>
            <feGaussianBlur stdDeviation=".595"/>
            <feComposite in2="hardAlpha" operator="out"/>
            <feColorMatrix values="0 0 0 0 1 0 0 0 0 1 0 0 0 0 1 0 0 0 1 0"/>
            <feBlend in2="BackgroundImageFix" result="effect1_dropShadow_1202_12361"/>
            <feBlend in="SourceGraphic" in2="effect1_dropShadow_1202_12361" result="shape"/>
        </filter>
        <filter id="rf07aryz8h" x="21.43" y="7.143" width="19.136" height="13.415" filterUnits="userSpaceOnUse" color-interpolation-filters="sRGB">
            <feFlood flood-opacity="0" result="BackgroundImageFix"/>
            <feBlend in="SourceGraphic" in2="BackgroundImageFix" result="shape"/>
            <feGaussianBlur stdDeviation=".595" result="effect1_foregroundBlur_1202_12361"/>
        </filter>
        <filter id="pmgzbkiyxj" x="63.096" y="7.225" width="15.476" height="12.418" filterUnits="userSpaceOnUse" color-interpolation-filters="sRGB">
            <feFlood flood-opacity="0" result="BackgroundImageFix"/>
            <feBlend in="SourceGraphic" in2="BackgroundImageFix" result="shape"/>
            <feGaussianBlur stdDeviation=".595" result="effect1_foregroundBlur_1202_12361"/>
        </filter>
        <radialGradient id="cl26cooyod" cx="0" cy="0" r="1" gradientUnits="userSpaceOnUse" gradientTransform="matrix(35.2914 0 0 34.904 49.961 36.905)">
            <stop stop-color="#fff"/>
            <stop offset=".6" stop-color="#EDEDF2"/>
            <stop offset="1" stop-color="#F1F3FE"/>
        </radialGradient>
    </defs>
</svg>
