<svg width="59" height="59" viewBox="0 0 59 59" fill="none" xmlns="http://www.w3.org/2000/svg">
    <g filter="url(#7z1jvm0haa)">
        <path d="M12.762 22.626c0-5.448 4.416-9.864 9.864-9.864h14.796c5.447 0 9.864 4.416 9.864 9.864v14.796c0 5.448-4.417 9.864-9.864 9.864H22.626c-5.448 0-9.864-4.416-9.864-9.864V22.626z" fill="#83A9FF"/>
        <foreignObject x="-1.381" y="-1.381" width="52.477" height="52.476">
            <div xmlns="http://www.w3.org/1999/xhtml" style="backdrop-filter:blur(3.45px);clip-path:url(#s124mirqcb);height:100%;width:100%"/>
        </foreignObject>
        <g data-figma-bg-blur-radius="6.905">
            <path d="M5.523 16.571c0-6.101 4.947-11.047 11.048-11.047h16.571c6.102 0 11.048 4.946 11.048 11.047v16.572c0 6.101-4.946 11.047-11.047 11.047H16.57c-6.101 0-11.048-4.946-11.048-11.047V16.57z" fill="#155DFC" fill-opacity=".6"/>
            <path d="M29.88 17.867a.69.69 0 0 1 .977 0l1.953 1.953a.69.69 0 0 1 0 .977l-5.409 5.41a.69.69 0 0 1-.43.199l-2.134.18a.69.69 0 0 1-.746-.745l.18-2.134a.691.691 0 0 1 .2-.43l5.41-5.41z" stroke="#fff" stroke-width="1.381"/>
            <path d="M25.857 17.226h-5.524a2.071 2.071 0 0 0-2.071 2.072v11.047c0 1.144.927 2.072 2.071 2.072h8.286a2.071 2.071 0 0 0 2.071-2.072V27.86" stroke="#fff" stroke-width="1.381" stroke-linecap="round"/>
        </g>
    </g>
    <defs>
        <clipPath id="s124mirqcb" transform="translate(1.381 1.381)">
            <path d="M5.523 16.571c0-6.101 4.947-11.047 11.048-11.047h16.571c6.102 0 11.048 4.946 11.048 11.047v16.572c0 6.101-4.946 11.047-11.047 11.047H16.57c-6.101 0-11.048-4.946-11.048-11.047V16.57z"/>
        </clipPath>
        <filter id="7z1jvm0haa" x="0" y="0" width="58.333" height="58.333" filterUnits="userSpaceOnUse" color-interpolation-filters="sRGB">
            <feFlood flood-opacity="0" result="BackgroundImageFix"/>
            <feColorMatrix in="SourceAlpha" values="0 0 0 0 0 0 0 0 0 0 0 0 0 0 0 0 0 0 127 0" result="hardAlpha"/>
            <feOffset dx="2.762" dy="2.762"/>
            <feGaussianBlur stdDeviation="4.143"/>
            <feComposite in2="hardAlpha" operator="out"/>
            <feColorMatrix values="0 0 0 0 0.223529 0 0 0 0 0.371765 0 0 0 0 0.964706 0 0 0 0.3 0"/>
            <feBlend in2="BackgroundImageFix" result="effect1_dropShadow_1148_11162"/>
            <feBlend in="SourceGraphic" in2="effect1_dropShadow_1148_11162" result="shape"/>
        </filter>
    </defs>
</svg>
