<svg width="58" height="58" viewBox="0 0 58 58" fill="none" xmlns="http://www.w3.org/2000/svg">
    <g filter="url(#3l5hva519a)">
        <path d="M12.428 22.293c0-5.448 4.416-9.864 9.864-9.864h14.796c5.447 0 9.864 4.416 9.864 9.864v14.795c0 5.448-4.417 9.864-9.864 9.864H22.292c-5.448 0-9.864-4.416-9.864-9.864V22.292z" fill="#87F2F2"/>
        <foreignObject x="-1.381" y="-1.381" width="52.477" height="52.476">
            <div xmlns="http://www.w3.org/1999/xhtml" style="backdrop-filter:blur(3.45px);clip-path:url(#k6somai44b);height:100%;width:100%"/>
        </foreignObject>
        <g data-figma-bg-blur-radius="6.905">
            <path d="M5.523 16.571c0-6.101 4.947-11.047 11.048-11.047h16.571c6.102 0 11.048 4.946 11.048 11.047v16.572c0 6.101-4.946 11.047-11.047 11.047H16.57c-6.101 0-11.048-4.946-11.048-11.047V16.57z" fill="#00C7AF" fill-opacity=".6"/>
            <path d="M25.166 17.226h-4.833a2.071 2.071 0 0 0-2.071 2.072v11.047c0 1.144.927 2.072 2.071 2.072h8.286a2.071 2.071 0 0 0 2.071-2.072v-5.938" stroke="#fff" stroke-width="1.381" stroke-linecap="round"/>
            <circle cx="27.976" cy="20.381" r="4.143" stroke="#fff" stroke-width="1.381"/>
            <path d="m26.547 20.214 1.22 1.328 2.923-3.108" stroke="#fff" stroke-width="1.381" stroke-linecap="round" stroke-linejoin="round"/>
        </g>
    </g>
    <defs>
        <clipPath id="k6somai44b" transform="translate(1.381 1.381)">
            <path d="M5.523 16.571c0-6.101 4.947-11.047 11.048-11.047h16.571c6.102 0 11.048 4.946 11.048 11.047v16.572c0 6.101-4.946 11.047-11.047 11.047H16.57c-6.101 0-11.048-4.946-11.048-11.047V16.57z"/>
        </clipPath>
        <filter id="3l5hva519a" x="0" y="0" width="57.999" height="58" filterUnits="userSpaceOnUse" color-interpolation-filters="sRGB">
            <feFlood flood-opacity="0" result="BackgroundImageFix"/>
            <feColorMatrix in="SourceAlpha" values="0 0 0 0 0 0 0 0 0 0 0 0 0 0 0 0 0 0 127 0" result="hardAlpha"/>
            <feOffset dx="2.762" dy="2.762"/>
            <feGaussianBlur stdDeviation="4.143"/>
            <feComposite in2="hardAlpha" operator="out"/>
            <feColorMatrix values="0 0 0 0 0.126435 0 0 0 0 0.867131 0 0 0 0 0.817751 0 0 0 0.3 0"/>
            <feBlend in2="BackgroundImageFix" result="effect1_dropShadow_1148_11164"/>
            <feBlend in="SourceGraphic" in2="effect1_dropShadow_1148_11164" result="shape"/>
        </filter>
    </defs>
</svg>
