<svg width="20" height="20" viewBox="0 0 20 20" fill="none" xmlns="http://www.w3.org/2000/svg">
    <path d="M3 4.5A2.5 2.5 0 0 1 5.5 2h9A2.5 2.5 0 0 1 17 4.5v12.511a1.5 1.5 0 0 1-1.912 1.443l-4.539-1.297a2 2 0 0 0-1.098 0l-4.539 1.297A1.5 1.5 0 0 1 3 17.01V4.5z" stroke="#fff" stroke-width="1.2"/>
    <path clip-rule="evenodd" d="M13.372 8.952a.42.42 0 0 0-.233-.717l-1.674-.243-.014-.002a.422.422 0 0 1-.318-.23l-.755-1.526a.422.422 0 0 0-.756 0L8.867 7.76a.422.422 0 0 1-.318.23l-1.688.245a.42.42 0 0 0-.233.717l1.221 1.188a.42.42 0 0 1 .121.372l-.177 1.03-.11.647a.422.422 0 0 0 .61.444l1.51-.792a.422.422 0 0 1 .393 0l1.51.792c.31.162.67-.1.612-.444l-.288-1.677a.42.42 0 0 1 .12-.372l1.222-1.188z" stroke="#fff" stroke-width="1.2"/>
</svg>
