<svg width="20" height="20" viewBox="0 0 20 20" fill="none" xmlns="http://www.w3.org/2000/svg">
    <path d="M4.57 7.541H3.541C2.691 7.541 2 8.231 2 9.083v7.198c0 .852.69 1.543 1.542 1.543h1.029c.851 0 1.542-.69 1.542-1.543V9.083c0-.851-.69-1.542-1.542-1.542" stroke="#fff" stroke-width="1.2" stroke-linecap="round" stroke-linejoin="round"/>
    <path d="m17.957 9.997-1.233 6.17a2.059 2.059 0 0 1-2.057 1.656h-6.5a2.056 2.056 0 0 1-2.056-2.056v-6.17a2.806 2.806 0 0 1 1.03-2.057l.852-5.142a.772.772 0 0 1 1.11-.565l.957.473a3.085 3.085 0 0 1 1.624 3.516l-.43 1.708h4.688a2.057 2.057 0 0 1 2.015 2.467z" stroke="#fff" stroke-width="1.2" stroke-linecap="round" stroke-linejoin="round"/>
</svg>
