<svg width="100" height="100" viewBox="0 0 100 100" fill="none" xmlns="http://www.w3.org/2000/svg">
    <ellipse opacity=".1" cx="50" cy="82" rx="33.5" ry="3" fill="#22449C"/>
    <ellipse opacity=".1" cx="81.5" cy="83.5" rx="7" ry="1" fill="#270A3A"/>
    <rect x="24" y="18" width="52" height="64" rx="6" fill="#4180FF"/>
    <path fill="#637FC8" d="M80 67h3v17h-3z"/>
    <circle cx="81.5" cy="60" r="10" fill="#A7BFFE"/>
    <path d="m78.5 57 6 6m0-6-6 6" stroke="#637FC8" stroke-width="1.5" stroke-linecap="round"/>
    <rect x="38" y="36.25" width="24" height="4.5" rx="2.25" fill="#fff"/>
    <rect x="38" y="47.75" width="24" height="4.5" rx="2.25" fill="#fff"/>
    <rect x="38" y="59.25" width="24" height="4.5" rx="2.25" fill="#fff"/>
    <path d="m0 36.5 2.614-.969c.223-.986.78-1.551.78-1.551a3.59 3.59 0 0 1 5.083 0l1.269 1.268 5.683-6.034c.857 3.428 0 6.857-2.1 9.617L18 43.357S10.38 45.07 5.94 41.6c-2.366-1.852-2.897-2.932-3.231-4.072L0 36.5z" fill="#6B8AD9"/>
    <circle cx="5.25" cy="36.25" r=".75" fill="#F0DAFF"/>
    <path d="M9.653 50.093a5.621 5.621 0 0 1 5.4 7.194 2.25 2.25 0 0 1 3.48 1.09 2.248 2.248 0 0 1-2.134 2.959H4.032a3.373 3.373 0 1 1 .112-6.744 5.622 5.622 0 0 1 5.51-4.5zM88.652 31.03a4.683 4.683 0 0 1 4.5 5.995 1.873 1.873 0 1 1 1.122 3.374H83.968a2.81 2.81 0 1 1 .093-5.62 4.685 4.685 0 0 1 4.591-3.75z" fill="#C9D8FF"/>
</svg>
