<svg width="20" height="20" viewBox="0 0 20 20" fill="none" xmlns="http://www.w3.org/2000/svg">
    <path d="M15.43 12.463h1.028c.851 0 1.542-.69 1.542-1.542V3.723c0-.851-.69-1.543-1.542-1.543h-1.029c-.851 0-1.542.691-1.542 1.543v7.198c0 .852.69 1.542 1.542 1.542" stroke="#fff" stroke-width="1.2" stroke-linecap="round" stroke-linejoin="round"/>
    <path d="m2.042 10.006 1.233-6.17A2.06 2.06 0 0 1 5.332 2.18h6.5a2.057 2.057 0 0 1 2.056 2.057v6.17a2.805 2.805 0 0 1-1.029 2.056l-.853 5.142a.771.771 0 0 1-1.11.565l-.956-.473a3.085 3.085 0 0 1-1.625-3.516l.43-1.707H4.058a2.056 2.056 0 0 1-2.015-2.468z" stroke="#fff" stroke-width="1.2" stroke-linecap="round" stroke-linejoin="round"/>
</svg>
